<svg id="Layer_1" data-name="Layer 1" xmlns="http://www.w3.org/2000/svg" viewBox="0 0 800 173"><defs><style>.cls-1{fill:#ff5c00;} .cls-2{fill:white;}</style></defs><g id="Group_14" data-name="Group 14"><g id="Group_5" data-name="Group 5"><g id="Group_4" data-name="Group 4"><g id="Group_1" data-name="Group 1"><path id="Path_1" data-name="Path 1" class="cls-1" d="M80.51,124.46C117.42,84.91,115,56.34,110.2,42.81A38.4,38.4,0,0,0,79.74,17a36,36,0,0,0-4.86-.33A35.58,35.58,0,0,0,45.82,32.23a45.11,45.11,0,0,0-7.68,30.12c2.24,25.9,14.32,40.75,28.32,57.92a52.55,52.55,0,0,1-38.41,20,6.74,6.74,0,0,0,0,13.47c19.3,0,37.41-10.07,52.34-29.1Zm-5.07-14.52c-12.84-15.79-22-27.76-23.85-48.75A31.65,31.65,0,0,1,56.82,40a21.74,21.74,0,0,1,21-9.72,24.92,24.92,0,0,1,19.61,17c5.93,16.79-2.07,39.36-22,62.62Z"/></g><g id="Group_3" data-name="Group 3"><path id="Path_3" data-name="Path 3" class="cls-1" d="M207,42.82A38.37,38.37,0,0,0,176.57,17a36.08,36.08,0,0,0-4.86-.33,35.58,35.58,0,0,0-29.06,15.61A45.16,45.16,0,0,0,135,62.35c2.24,25.91,14.32,40.77,28.31,57.93-14,16-31.21,22.82-48,18.84a42.29,42.29,0,0,1-14.77-7.07l-3.31-2.39a6.75,6.75,0,1,0-7.9,10.94L92.66,143a55.42,55.42,0,0,0,19.53,9.21,54.05,54.05,0,0,0,12.41,1.47,66.88,66.88,0,0,0,50.64-26.6c2-2.43,4.17-4.82,6.27-7.22C214.05,82.69,211.59,55.81,207,42.82Zm-34.73,67.12c-12.86-15.79-22.06-27.76-23.87-48.75A31.78,31.78,0,0,1,153.65,40a21.74,21.74,0,0,1,21-9.72,25,25,0,0,1,19.63,17c5.91,16.79-2.09,39.36-22,62.62Z"/><path id="Path_4" data-name="Path 4" class="cls-1" d="M213.38,144.53A6.73,6.73,0,0,1,207,150a7.23,7.23,0,0,1-1.8-.17,47.77,47.77,0,0,1-18.61-8.63,7,7,0,0,1-2-9.46,6.74,6.74,0,0,1,9.34-1.86l.21.15A34.83,34.83,0,0,0,208,136.68,7,7,0,0,1,213.38,144.53Z"/><circle id="Ellipse_1" data-name="Ellipse 1" class="cls-1" cx="229.62" cy="147.47" r="6.74"/></g></g></g><g id="Group_6" data-name="Group 6" class="cls-2"><path id="Path_5" data-name="Path 5" d="M383.34,59.43a40.9,40.9,0,0,1,22.26-5.37A43.76,43.76,0,0,1,423,57.18a30,30,0,0,1,11.81,8.89,36.13,36.13,0,0,1,6.64,13.76,72.91,72.91,0,0,1,2.05,18V154h-17V95.64a29,29,0,0,0-5.66-19.33,21.07,21.07,0,0,0-17-6.63,28.89,28.89,0,0,0-14,3,23.91,23.91,0,0,0-8.89,8.2,34.66,34.66,0,0,0-4.68,12.3,81.12,81.12,0,0,0-1.36,15.32V154H358.09V95.64a28.71,28.71,0,0,0-5.67-19.35,21.64,21.64,0,0,0-17.28-6.64,28.36,28.36,0,0,0-13.86,3,23,23,0,0,0-8.69,8.3,35.44,35.44,0,0,0-4.49,12.39,86.23,86.23,0,0,0-1.26,15.13V154H290.05V56.41h16.2a5.36,5.36,0,0,0,8.46,4.39,34.56,34.56,0,0,1,3.84-2.43,38.37,38.37,0,0,1,18.74-4.29,35.65,35.65,0,0,1,20.3,5.27,32.56,32.56,0,0,1,11.72,14.06A47.11,47.11,0,0,1,383.34,59.43Z"/><path id="Path_6" data-name="Path 6" d="M545.4,154H529.19v-.28a5.46,5.46,0,0,0-5.58-5.35,5.39,5.39,0,0,0-3.3,1.2,33.53,33.53,0,0,1-4,2.67A36.79,36.79,0,0,1,498,156.36a41,41,0,0,1-17.28-3.22,29.8,29.8,0,0,1-11.23-8.79,34.78,34.78,0,0,1-6.15-13.28,72.07,72.07,0,0,1-1.85-16.88V56.39h17.18v57.78a55.31,55.31,0,0,0,1,10.74,21.41,21.41,0,0,0,3.52,8.39,16.7,16.7,0,0,0,6.84,5.47,31.2,31.2,0,0,0,24.69-1.27,23.75,23.75,0,0,0,8.51-8.59,36.11,36.11,0,0,0,4.29-12.39,88.69,88.69,0,0,0,1.18-14.64V56.39H545.4Z"/><path id="Path_7" data-name="Path 7" d="M556.3,56.39H576L605.87,131l30.06-74.57h19.53l-40.27,91.53a10.19,10.19,0,0,1-9.31,6.08h0a10.18,10.18,0,0,1-9.32-6.08Z"/><path id="Path_8" data-name="Path 8" d="M673.54,60.9a45.56,45.56,0,0,1,27.13-6.84q20.31,0,29.77,9.47a36.58,36.58,0,0,1,9.47,27V154H723.12a5.75,5.75,0,0,0-8.93-4.86,36.82,36.82,0,0,1-4.35,2.61A40.69,40.69,0,0,1,691.1,156,39.43,39.43,0,0,1,677,153.6a30.36,30.36,0,0,1-10.33-6.34,27,27,0,0,1-6.44-9.56,31.86,31.86,0,0,1-2.25-12,29.48,29.48,0,0,1,2.35-12.11,26.21,26.21,0,0,1,6.63-9.07,33.42,33.42,0,0,1,10-6.08,43.91,43.91,0,0,1,12.49-2.83l27.52-2.73q6.25-.62,6.25-5.27V85.06a14.27,14.27,0,0,0-5.36-11.62,25.41,25.41,0,0,0-16.31-4.39,31.4,31.4,0,0,0-16.88,4.2,18.46,18.46,0,0,0-8.3,13.36l-14.84-8A30.61,30.61,0,0,1,673.54,60.9Zm17.76,50.36a18.91,18.91,0,0,0-12,5.08,13.56,13.56,0,0,0-3.8,9.56,13,13,0,0,0,4.58,10.25,20.09,20.09,0,0,0,13.57,4,32.54,32.54,0,0,0,12.49-2.24A28.8,28.8,0,0,0,715.4,132a25.64,25.64,0,0,0,5.76-8.21,22.81,22.81,0,0,0,2-9.17v-7.22Z"/><path id="Path_9" data-name="Path 9" d="M778.67,154H761.48V17.35h17.19Z"/></g></g></svg>